<?xml version="1.0"?>
<svg xmlns="http://www.w3.org/2000/svg" xmlns:xlink="http://www.w3.org/1999/xlink" xmlns:svgjs="http://svgjs.com/svgjs" version="1.1" width="512" height="512" x="0" y="0" viewBox="0 0 58 58" style="enable-background:new 0 0 512 512" xml:space="preserve" class=""><g>
<path xmlns="http://www.w3.org/2000/svg" style="" d="M46.324,52.5H1.565c-1.03,0-1.779-0.978-1.51-1.973l10.166-27.871  c0.184-0.682,0.803-1.156,1.51-1.156H56.49c1.03,0,1.51,0.984,1.51,1.973L47.834,51.344C47.65,52.026,47.031,52.5,46.324,52.5z" fill="#9bc848" data-original="#efce4a" class=""/>
<g xmlns="http://www.w3.org/2000/svg">
	<path style="" d="M50.268,12.5H25l-5-7H1.732C0.776,5.5,0,6.275,0,7.232V49.96c0.069,0.002,0.138,0.006,0.205,0.01   l10.015-27.314c0.184-0.683,0.803-1.156,1.51-1.156H52v-7.268C52,13.275,51.224,12.5,50.268,12.5z" fill="#97b414" data-original="#ebba16" class=""/>
</g>
<g xmlns="http://www.w3.org/2000/svg">
</g>
<g xmlns="http://www.w3.org/2000/svg">
</g>
<g xmlns="http://www.w3.org/2000/svg">
</g>
<g xmlns="http://www.w3.org/2000/svg">
</g>
<g xmlns="http://www.w3.org/2000/svg">
</g>
<g xmlns="http://www.w3.org/2000/svg">
</g>
<g xmlns="http://www.w3.org/2000/svg">
</g>
<g xmlns="http://www.w3.org/2000/svg">
</g>
<g xmlns="http://www.w3.org/2000/svg">
</g>
<g xmlns="http://www.w3.org/2000/svg">
</g>
<g xmlns="http://www.w3.org/2000/svg">
</g>
<g xmlns="http://www.w3.org/2000/svg">
</g>
<g xmlns="http://www.w3.org/2000/svg">
</g>
<g xmlns="http://www.w3.org/2000/svg">
</g>
<g xmlns="http://www.w3.org/2000/svg">
</g>
</g></svg>
