<svg enable-background="new 0 0 286 286" version="1.1" viewBox="0 0 286 286" xml:space="preserve" xmlns="http://www.w3.org/2000/svg"><path d="m172.56 112.93c0 16.114-13.11 29.225-29.226 29.225-16.114 0-29.225-13.11-29.225-29.225s13.11-29.225 29.225-29.225 29.226 13.11 29.226 29.225zm84.441 158.07c0 8.284-6.716 15-15 15h-198c-8.284 0-15-6.716-15-15v-256c0-8.284 6.716-15 15-15h198c8.284 0 15 6.716 15 15v256zm-198.51-227.9c0 7.856 6.369 14.225 14.225 14.225s14.225-6.369 14.225-14.225-6.369-14.225-14.225-14.225-14.225 6.369-14.225 14.225zm28.45 200.01c0-7.856-6.369-14.225-14.225-14.225s-14.225 6.369-14.225 14.225 6.369 14.225 14.225 14.225c7.857 0 14.225-6.369 14.225-14.225zm127.25-128.02c0-38.791-31.56-70.35-70.351-70.35s-70.35 31.559-70.35 70.35c0 17.174 6.194 32.923 16.455 45.151l11.858-11.897c4.913-4.929 12.566-5.832 18.489-2.184 5.924 3.647 8.562 10.89 6.373 17.493l-5.925 17.871c7.24 2.525 15.008 3.915 23.099 3.915 38.792 0 70.352-31.558 70.352-70.349zm14.999 128.02c0-7.856-6.369-14.225-14.225-14.225s-14.225 6.369-14.225 14.225 6.369 14.225 14.225 14.225 14.225-6.369 14.225-14.225zm0-200.01c0-7.856-6.369-14.225-14.225-14.225s-14.225 6.369-14.225 14.225 6.369 14.225 14.225 14.225 14.225-6.369 14.225-14.225z" fill="#d6d6d6"/></svg>
