<svg width="48" height="48" version="1.1" viewBox="0 0 48 48" xmlns="http://www.w3.org/2000/svg"><g transform="matrix(1.5123 0 0 1.5089 .00030245 1.2193e-5)"><path d="m25.268 27.778s0.36263-0.16979 0.83768-0.22623c0.47504-0.05644 0.71163-0.09971 0.452 0.22623-0.25963 0.32548-1.9086 1.5761-2.9787 2.1212-1.0705 0.54512-2.0563 0.99665-2.9834 1.19-0.92657 0.19284 3.7213-3.298 4.6724-3.3112zm-4.9042-23.519s1.2036-2.101 1.3165-2.5464c0.11335-0.44541-0.06303-0.63214-0.06303-0.63214s-0.41578-0.2394-2.4171 0.38568c-2.0018 0.62508-4.5882 1.6025-4.5882 1.6025s-13.24 8.3274-13.877 9.4623l-0.63637 1.1349s-0.21495 0.62884 1.6471 0.31466c1.8616-0.31466 6.636-2.2209 6.636-2.2209zm-8.5245-3.1452c-0.93457 1.3334-5.0152 3.3879-5.0152 3.3879s-0.61803 0.023517-1.1368 0.15945c-0.51879 0.1364-1.1072 0.20601-1.0258 0 0.081369-0.20601 0.47881-0.4868 0.47881-0.4868s3.132-2.2195 3.6748-2.5394c0.54324-0.31983 2.5201-0.97972 2.5201-0.97972s0.11806 0.020225 0.32406 0.079958c0.20695 0.059263 0.18014 0.37862 0.18014 0.37862zm17.508 9.103c-3.9833 7.3674-17.374 11.836-17.374 11.836s-6.5297 2.2459-7.9991 2.4599c-1.4693 0.214-1.6382-0.214-1.6382-0.214s-0.15051-0.45059 0.62085-2.2727c0.77136-1.8216 15.812-10.878 17.128-11.503 1.317-0.62508 6.2504-2.2012 7.8528-2.5394 1.6025-0.33912 1.7022 0 1.7022 0zm1.5926 9.3955 0.56535-0.9087s0.10912-0.20601-0.08701-0.30854c-0.19566-0.10206-1.5126 0.10959-3.9198 0.84144-2.4067 0.73138-2.4133 0.73138-2.4133 0.73138l-14.795 9.3367 0.30055 1.617s0.29114 0.18108 1.9999-0.17826c1.7092-0.35934 5.0665-1.689 5.0665-1.689s11.637-6.2574 13.282-9.4421z" fill="#707173"/><path d="m15.846-4.2925e-6a15.898 15.898 0 0 0-4.52 0.65283c0.02587 0.005174 0.27139 0.059733-0.09454 0.31842-0.38568 0.27233-2.7063 1.9148-4.5482 3.1386-1.2568 0.83438-2.941 2.0352-3.9664 2.8188a15.807 15.807 0 0 0-2.6179 6.7372c1.1486-1.3781 4.5219-3.6038 5.86-4.5364 1.6222-1.1302 6.6892-4.3215 9.6942-6.4898 2.9495-2.1269 2.6057-2.4481 2.592-2.4594a16.076 16.076 0 0 0-2.3992-0.18014zm-6.9817 1.6109a0.72903 0.72903 0 0 1-0.20601 0.21777c-0.44259 0.32924-3.5981 2.4223-3.7199 2.5032a15.941 15.941 0 0 1 3.9259-2.7209zm-8.8645 15.656c0.043742-0.05315 1.4994-1.8099 5.0745-4.1141 3.6306-2.3409 5.8247-4.0162 8.1256-5.4527 2.3004-1.4364 7.6995-5.1465 8.2183-6.1041 0.10442-0.1919 0.1665-0.36357 0.19942-0.51596a15.934 15.934 0 0 1 5.867 3.9857c-9.41e-4 0.026339-0.0555 0.80946-2.3691 2.5347-2.3541 1.7553-6.4898 4.615-7.6068 5.3661s-9.3687 6.217-12.148 8.4243c-1.7459 1.3866-2.5629 2.0493-3.0248 2.9076a15.799 15.799 0 0 1-2.3357-7.0316zm4.6197 9.903c-0.00658-0.03575-0.071021-0.74737 4.4842-3.9565 4.6808-3.2985 10.572-7.2216 12.727-8.658 2.1537-1.436 7.572-4.9804 7.8095-6.5725a15.813 15.813 0 0 1 2.1001 7.3185c-0.0056 0.0061-1.6039 1.6523-5.1084 4.0816-3.5111 2.434-9.6815 6.3703-11.477 7.7131-1.5267 1.1425-4.2745 2.8808-4.5632 3.8253a15.904 15.904 0 0 1-5.9724-3.7514zm9.3518 4.5308c0.61521 0.07196 1.2408 0.10959 1.8748 0.10959 1.7059 0 3.3488-0.26856 4.8892-0.76618 0.25728-0.41296 1.3964-1.2271 3.0502-2.2195 2.3512-1.411 4.662-3.2566 4.7429-3.3215a15.83 15.83 0 0 0 2.9815-6.8242c-0.49809 1.2384-6.3957 5.1055-8.2032 6.1958-1.8085 1.0902-7.8062 5.1596-8.8433 6.1836-0.24505 0.24223-0.39932 0.45623-0.49198 0.64249z" fill="#009ee0"/><path d="m25.268 27.778s0.36263-0.16979 0.83768-0.22623c0.47504-0.05644 0.71163-0.09971 0.452 0.22623-0.25963 0.32548-1.9086 1.5761-2.9787 2.1212-1.0705 0.54512-2.0563 0.99665-2.9834 1.19-0.92657 0.19284 3.7213-3.298 4.6724-3.3112zm-4.9042-23.519s1.2036-2.101 1.3165-2.5464c0.11335-0.44541-0.06303-0.63214-0.06303-0.63214s-0.41578-0.2394-2.4171 0.38568c-2.0018 0.62508-4.5882 1.6025-4.5882 1.6025s-13.24 8.3274-13.877 9.4623l-0.63637 1.1349s-0.21495 0.62884 1.6471 0.31466c1.8616-0.31466 6.636-2.2209 6.636-2.2209zm-8.5245-3.1452c-0.93457 1.3334-5.0152 3.3879-5.0152 3.3879s-0.61803 0.023517-1.1368 0.15945c-0.51879 0.1364-1.1072 0.20601-1.0258 0 0.081369-0.20601 0.47881-0.4868 0.47881-0.4868s3.132-2.2195 3.6748-2.5394c0.54324-0.31983 2.5201-0.97972 2.5201-0.97972s0.11806 0.020225 0.32406 0.079958c0.20695 0.059263 0.18014 0.37862 0.18014 0.37862zm17.508 9.103c-3.9833 7.3674-17.374 11.836-17.374 11.836s-6.5297 2.2459-7.9991 2.4599c-1.4693 0.214-1.6382-0.214-1.6382-0.214s-0.15051-0.45059 0.62085-2.2727c0.77136-1.8216 15.812-10.878 17.128-11.503 1.317-0.62508 6.2504-2.2012 7.8528-2.5394 1.6025-0.33912 1.7022 0 1.7022 0zm1.5926 9.3955 0.56535-0.9087s0.10912-0.20601-0.08701-0.30854c-0.19566-0.10206-1.5126 0.10959-3.9198 0.84144-2.4067 0.73138-2.4133 0.73138-2.4133 0.73138l-14.795 9.3367 0.30055 1.617s0.29114 0.18108 1.9999-0.17826c1.7092-0.35934 5.0665-1.689 5.0665-1.689s11.637-6.2574 13.282-9.4421z" fill="#656565"/><path d="m15.846-4.2925e-6a15.898 15.898 0 0 0-4.52 0.65283c0.02587 0.005174 0.27139 0.059733-0.09454 0.31842-0.38568 0.27233-2.7063 1.9148-4.5482 3.1386-1.2568 0.83438-2.941 2.0352-3.9664 2.8188a15.807 15.807 0 0 0-2.6179 6.7372c1.1486-1.3781 4.5219-3.6038 5.86-4.5364 1.6222-1.1302 6.6892-4.3215 9.6942-6.4898 2.9495-2.1269 2.6057-2.4481 2.592-2.4594a16.076 16.076 0 0 0-2.3992-0.18014zm-6.9817 1.6109a0.72903 0.72903 0 0 1-0.20601 0.21777c-0.44259 0.32924-3.5981 2.4223-3.7199 2.5032a15.941 15.941 0 0 1 3.9259-2.7209zm-8.8645 15.656c0.043742-0.05315 1.4994-1.8099 5.0745-4.1141 3.6306-2.3409 5.8247-4.0162 8.1256-5.4527 2.3004-1.4364 7.6995-5.1465 8.2183-6.1041 0.10442-0.1919 0.1665-0.36357 0.19942-0.51596a15.934 15.934 0 0 1 5.867 3.9857c-9.41e-4 0.026339-0.0555 0.80946-2.3691 2.5347-2.3541 1.7553-6.4898 4.615-7.6068 5.3661s-9.3687 6.217-12.148 8.4243c-1.7459 1.3866-2.5629 2.0493-3.0248 2.9076a15.799 15.799 0 0 1-2.3357-7.0316zm4.6197 9.903c-0.00658-0.03575-0.071021-0.74737 4.4842-3.9565 4.6808-3.2985 10.572-7.2216 12.727-8.658 2.1537-1.436 7.572-4.9804 7.8095-6.5725a15.813 15.813 0 0 1 2.1001 7.3185c-0.0056 0.0061-1.6039 1.6523-5.1084 4.0816-3.5111 2.434-9.6815 6.3703-11.477 7.7131-1.5267 1.1425-4.2745 2.8808-4.5632 3.8253a15.904 15.904 0 0 1-5.9724-3.7514zm9.3518 4.5308c0.61521 0.07196 1.2408 0.10959 1.8748 0.10959 1.7059 0 3.3488-0.26856 4.8892-0.76618 0.25728-0.41296 1.3964-1.2271 3.0502-2.2195 2.3512-1.411 4.662-3.2566 4.7429-3.3215a15.83 15.83 0 0 0 2.9815-6.8242c-0.49809 1.2384-6.3957 5.1055-8.2032 6.1958-1.8085 1.0902-7.8062 5.1596-8.8433 6.1836-0.24505 0.24223-0.39932 0.45623-0.49198 0.64249z" fill="#9bc848"/></g></svg>
