<svg width="512" height="512" enable-background="new 0 0 512 512" version="1.1" viewBox="0 0 574.68 574.68" xml:space="preserve" xmlns="http://www.w3.org/2000/svg"><g transform="matrix(6.1232e-17 1 -1 6.1232e-17 574.68 -2.8135e-5)" fill="#d6d6d6"><path d="m561.92 361.22c3.593-1.071 9.902-4.082 9.902-12.259 0-11.285 2.791-36.83 2.846-61.157h6e-3v-0.397s0-0.263 0-0.398h-6e-3c-0.055-24.327-2.846-49.872-2.846-61.157 0-10.239-9.878-12.423-11.922-12.766 2.711 10.147 5.227 32.124 5.227 80.735 0 35.856-1.383 55.985-3.207 67.399z" data-original="#000000"/><path d="m2.877 352.28c2.558 6.946 9.296 8.819 12.289 9.321-1.854-11.341-3.268-31.519-3.268-67.779 0-3.084 0.012-6.028 0.03-8.898-0.349-0.539-0.575-1.151-0.539-1.806l0.765-13.972c0.704-31.818 2.778-47.896 4.981-56.114-0.288-0.013-0.477-0.019-0.477-0.019s-10.458 0.478-13.781 9.505c-3.176 8.611-2.889 60.086-2.852 64.878-0.043 4.798-0.324 56.273 2.852 64.884z" data-original="#000000"/><path d="m347.48 352.76c44.174-0.869 183.78 7.338 208.25 8.807 1.615-9.565 3.28-28.838 3.28-67.742 0-53.893-3.226-73.422-5.361-80.454-29.333 1.75-163.1 9.529-206.17 8.684-44.034-0.863-280.93-7.607-324.06-8.837-1.297 4.198-3.017 13.035-4.162 31.53h281.72c4.834 0 8.77 3.935 8.77 8.764v24.082c0 4.835-3.936 8.764-8.77 8.764h-282.94c-0.012 2.418-0.024 4.902-0.024 7.473 0 39.033 1.677 58.306 3.292 67.834 36.757-1.059 281.36-8.03 326.17-8.905zm-279.38-118.9h-10.3v-2.509h10.3v2.509zm-10.3-4.296 5.147-8.274 5.147 8.274h-10.294zm369.76 83.893c0-4.26 3.654-7.724 8.146-7.724h96.83c4.492 0 8.152 3.464 8.152 7.724v17.718c0 4.259-3.66 7.723-8.152 7.723h-96.83c-4.492 0-8.146-3.464-8.146-7.723v-17.718zm-55.043-64.205c20.82 0 37.761 16.94 37.761 37.754 0 20.82-16.94 37.76-37.761 37.76s-37.76-16.94-37.76-37.76 16.94-37.754 37.76-37.754z" data-original="#000000"/><circle cx="372.51" cy="287" r="6.812" data-original="#000000"/><path d="m303.61 277.58v-24.083c0-1.457-1.188-2.644-2.65-2.644h-281.69l-1.01 18.409c-0.08 3.458-0.141 7.093-0.184 10.961h282.88c1.464-5e-3 2.651-1.192 2.651-2.643z" data-original="#000000"/><rect x="454.97" y="310.41" width="15.649" height="23.807" data-original="#000000"/><path d="m435.7 334.21h14.596v-23.807h-14.596c-1.91 0-3.464 1.365-3.464 3.048v17.718c0 1.677 1.554 3.041 3.464 3.041z" data-original="#000000"/><path d="m536 331.17v-17.718c0-1.677-1.561-3.048-3.47-3.048h-57.241v23.807h57.241c1.909 0 3.47-1.364 3.47-3.041z" data-original="#000000"/></g></svg>
