<svg enable-background="new 0 0 447.243 447.243" version="1.1" viewBox="0 0 447.24 447.24" xml:space="preserve" xmlns="http://www.w3.org/2000/svg"><path d="m420.36 192.23c-1.83-0.297-3.682-0.434-5.535-0.41h-315.52l6.88-3.2c6.725-3.183 12.843-7.515 18.08-12.8l88.48-88.48c11.653-11.124 13.611-29.019 4.64-42.4-10.441-14.259-30.464-17.355-44.724-6.914-1.152 0.844-2.247 1.764-3.276 2.754l-160 160c-12.504 12.49-12.515 32.751-0.025 45.255l160.02 160.02c12.514 12.479 32.775 12.451 45.255-0.063 0.982-0.985 1.899-2.033 2.745-3.137 8.971-13.381 7.013-31.276-4.64-42.4l-88.32-88.64c-4.695-4.7-10.093-8.641-16-11.68l-9.6-4.32h314.24c16.347 0.607 30.689-10.812 33.76-26.88 2.829-17.445-9.019-33.88-26.464-36.71z" fill="#eee"/></svg>
