<?xml version="1.0" encoding="UTF-8" standalone="no"?>
<svg
   width="700"
   height="500"
   version="1.1"
   viewBox="0 0 185.21 132.29"
   xml:space="preserve"
   id="svg69"
   xmlns="http://www.w3.org/2000/svg"
   xmlns:svg="http://www.w3.org/2000/svg"><defs
     id="defs73" /><g
     stroke-width="2.498"
     id="g65"
     transform="matrix(1.166711,0,0,1.166655,-15.436346,-0.44089406)"><path
       d="m 116.1,71.96 c 0,0 0.90683,-0.42368 2.0948,-0.56451 1.1879,-0.14084 1.7796,-0.24881 1.1303,0.56451 -0.64926,0.81217 -4.7728,3.9328 -7.4488,5.293 -2.677,1.3602 -5.1422,2.4869 -7.4606,2.9694 -2.3171,0.48119 9.3058,-8.2295 11.684,-8.2624 z M 103.836,13.273 c 0,0 3.0098,-5.2426 3.2922,-6.354 0.28345,-1.1114 -0.15762,-1.5774 -0.15762,-1.5774 0,0 -1.0397,-0.59737 -6.0444,0.96239 -5.0059,1.5598 -11.474,3.9987 -11.474,3.9987 0,0 -33.109,20.779 -34.702,23.611 l -1.5914,2.8319 c 0,0 -0.53752,1.5691 4.1189,0.78517 4.6553,-0.78517 16.595,-5.5418 16.595,-5.5418 z M 82.519,5.4248 c -2.3371,3.3272 -12.542,8.4538 -12.542,8.4538 0,0 -1.5455,0.05868 -2.8428,0.39788 -1.2973,0.34036 -2.7688,0.51406 -2.5652,0 0.20348,-0.51406 1.1974,-1.2147 1.1974,-1.2147 0,0 7.8322,-5.5383 9.1896,-6.3366 1.3585,-0.79807 6.302,-2.4447 6.302,-2.4447 0,0 0.29523,0.050467 0.81038,0.19952 0.51752,0.14788 0.45048,0.94477 0.45048,0.94477 z m 43.782,22.715 c -9.961,18.384 -43.447,29.534 -43.447,29.534 0,0 -16.329,5.6042 -20.003,6.1382 -3.6743,0.534 -4.0966,-0.53399 -4.0966,-0.53399 0,0 -0.37638,-1.1244 1.5526,-5.6711 1.9289,-4.5454 39.541,-27.144 42.832,-28.703 3.2934,-1.5598 15.63,-5.4927 19.638,-6.3366 4.0074,-0.84621 4.2567,0 4.2567,0 z m 3.9826,23.445 1.4138,-2.2675 c 0,0 0.27288,-0.51406 -0.21759,-0.7699 -0.48928,-0.25467 -3.7826,0.27346 -9.8022,2.0996 -6.0184,1.825 -6.0349,1.825 -6.0349,1.825 l -36.998,23.298 0.75158,4.0349 c 0,0 0.72805,0.45185 5.0012,-0.44481 4.2742,-0.89666 12.67,-4.2146 12.67,-4.2146 0,0 29.101,-15.614 33.214,-23.561 z"
       fill="#707173"
       id="path57" /><path
       d="M 92.543,2.6459 A 39.756,39.67 0 0 0 81.24,4.2749 c 0.06469,0.012911 0.67866,0.14905 -0.23642,0.79455 -0.96447,0.67954 -6.7676,4.778 -11.374,7.8317 -3.1429,2.082 -7.3546,5.0784 -9.9188,7.0338 a 39.529,39.443 0 0 0 -6.5466,16.811 c 2.8723,-3.4388 11.308,-8.9926 14.654,-11.32 4.0566,-2.8202 16.728,-10.783 24.242,-16.194 7.3758,-5.3073 6.5161,-6.1087 6.4818,-6.1369 a 40.201,40.114 0 0 0 -5.9997,-0.4495 z M 75.084,6.6656 A 1.8231,1.8191 0 0 1 74.56883,7.209 c -1.1068,0.82155 -8.9978,6.0444 -9.3024,6.2462 a 39.864,39.778 0 0 1 9.8175,-6.7895 z m -22.167,39.066 c 0.10938,-0.13263 3.7495,-4.5162 12.69,-10.266 9.079,-5.8412 14.566,-10.022 20.32,-13.606 5.7526,-3.5842 19.254,-12.842 20.552,-15.232 0.26113,-0.47885 0.41637,-0.90722 0.49869,-1.2875 a 39.846,39.76 0 0 1 14.672,9.9455 c -0.002,0.06572 -0.13879,2.0198 -5.9244,6.3248 -5.8869,4.38 -16.229,11.516 -19.022,13.39 -2.793,1.874 -23.428,15.513 -30.379,21.021 -4.366,3.46 -6.409,5.1136 -7.5641,7.2553 a 39.509,39.423 0 0 1 -5.8409,-17.546 z m 11.552,24.711 c -0.01646,-0.08921 -0.1776,-1.8649 11.214,-9.8727 11.705,-8.2307 26.437,-18.02 31.826,-21.604 5.3858,-3.5833 18.935,-12.428 19.529,-16.4 a 39.544,39.458 0 0 1 5.2517,18.262 c -0.014,0.01522 -4.0109,4.123 -12.775,10.185 -8.7802,6.0736 -24.211,15.896 -28.701,19.246 -3.8178,2.8509 -10.689,7.1885 -11.411,9.5453 a 39.771,39.685 0 0 1 -14.935,-9.3609 z m 23.386,11.306 c 1.5385,0.17956 3.1029,0.27346 4.6883,0.27346 4.2659,0 8.3743,-0.67014 12.226,-1.9118 0.64338,-1.0305 3.492,-3.062 7.6276,-5.5383 5.8796,-3.5209 11.658,-8.1262 11.861,-8.2881 a 39.586,39.501 0 0 0 7.4558,-17.028 c -1.2456,3.0902 -15.994,12.74 -20.514,15.46 -4.5225,2.7204 -19.521,12.875 -22.114,15.43 -0.6128,0.60444 -0.99858,1.1384 -1.2303,1.6032 z"
       fill="#009ee0"
       id="path59" /><path
       d="m 116.1,71.96 c 0,0 0.90683,-0.42368 2.0948,-0.56451 1.1879,-0.14084 1.7796,-0.24881 1.1303,0.56451 -0.64926,0.81217 -4.7728,3.9328 -7.4488,5.293 -2.677,1.3602 -5.1422,2.4869 -7.4606,2.9694 -2.3171,0.48119 9.3058,-8.2295 11.684,-8.2624 z M 103.836,13.273 c 0,0 3.0098,-5.2426 3.2922,-6.354 0.28345,-1.1114 -0.15762,-1.5774 -0.15762,-1.5774 0,0 -1.0397,-0.59737 -6.0444,0.96239 -5.0059,1.5598 -11.474,3.9987 -11.474,3.9987 0,0 -33.109,20.779 -34.702,23.611 l -1.5914,2.8319 c 0,0 -0.53752,1.5691 4.1189,0.78517 4.6553,-0.78517 16.595,-5.5418 16.595,-5.5418 z M 82.519,5.4248 c -2.3371,3.3272 -12.542,8.4538 -12.542,8.4538 0,0 -1.5455,0.05868 -2.8428,0.39788 -1.2973,0.34036 -2.7688,0.51406 -2.5652,0 0.20348,-0.51406 1.1974,-1.2147 1.1974,-1.2147 0,0 7.8322,-5.5383 9.1896,-6.3366 1.3585,-0.79807 6.302,-2.4447 6.302,-2.4447 0,0 0.29523,0.050467 0.81038,0.19952 0.51752,0.14788 0.45048,0.94477 0.45048,0.94477 z m 43.782,22.715 c -9.961,18.384 -43.447,29.534 -43.447,29.534 0,0 -16.329,5.6042 -20.003,6.1382 -3.6743,0.534 -4.0966,-0.53399 -4.0966,-0.53399 0,0 -0.37638,-1.1244 1.5526,-5.6711 1.9289,-4.5454 39.541,-27.144 42.832,-28.703 3.2934,-1.5598 15.63,-5.4927 19.638,-6.3366 4.0074,-0.84621 4.2567,0 4.2567,0 z m 3.9826,23.445 1.4138,-2.2675 c 0,0 0.27288,-0.51406 -0.21759,-0.7699 -0.48928,-0.25467 -3.7826,0.27346 -9.8022,2.0996 -6.0184,1.825 -6.0349,1.825 -6.0349,1.825 l -36.998,23.298 0.75158,4.0349 c 0,0 0.72805,0.45185 5.0012,-0.44481 4.2742,-0.89666 12.67,-4.2146 12.67,-4.2146 0,0 29.101,-15.614 33.214,-23.561 z"
       fill="#656565"
       id="path61" /><path
       d="M 92.543,2.6459 A 39.756,39.67 0 0 0 81.24,4.2749 c 0.06469,0.012911 0.67866,0.14905 -0.23642,0.79455 -0.96447,0.67954 -6.7676,4.778 -11.374,7.8317 -3.1429,2.082 -7.3546,5.0784 -9.9188,7.0338 a 39.529,39.443 0 0 0 -6.5466,16.811 c 2.8723,-3.4388 11.308,-8.9926 14.654,-11.32 4.0566,-2.8202 16.728,-10.783 24.242,-16.194 7.3758,-5.3073 6.5161,-6.1087 6.4818,-6.1369 a 40.201,40.114 0 0 0 -5.9997,-0.4495 z M 75.084,6.6656 A 1.8231,1.8191 0 0 1 74.56883,7.209 c -1.1068,0.82155 -8.9978,6.0444 -9.3024,6.2462 a 39.864,39.778 0 0 1 9.8175,-6.7895 z m -22.167,39.066 c 0.10938,-0.13263 3.7495,-4.5162 12.69,-10.266 9.079,-5.8412 14.566,-10.022 20.32,-13.606 5.7526,-3.5842 19.254,-12.842 20.552,-15.232 0.26113,-0.47885 0.41637,-0.90722 0.49869,-1.2875 a 39.846,39.76 0 0 1 14.672,9.9455 c -0.002,0.06572 -0.13879,2.0198 -5.9244,6.3248 -5.8869,4.38 -16.229,11.516 -19.022,13.39 -2.793,1.874 -23.428,15.513 -30.379,21.021 -4.366,3.46 -6.409,5.1136 -7.5641,7.2553 a 39.509,39.423 0 0 1 -5.8409,-17.546 z m 11.552,24.711 c -0.01646,-0.08921 -0.1776,-1.8649 11.214,-9.8727 11.705,-8.2307 26.437,-18.02 31.826,-21.604 5.3858,-3.5833 18.935,-12.428 19.529,-16.4 a 39.544,39.458 0 0 1 5.2517,18.262 c -0.014,0.01522 -4.0109,4.123 -12.775,10.185 -8.7802,6.0736 -24.211,15.896 -28.701,19.246 -3.8178,2.8509 -10.689,7.1885 -11.411,9.5453 a 39.771,39.685 0 0 1 -14.935,-9.3609 z m 23.386,11.306 c 1.5385,0.17956 3.1029,0.27346 4.6883,0.27346 4.2659,0 8.3743,-0.67014 12.226,-1.9118 0.64338,-1.0305 3.492,-3.062 7.6276,-5.5383 5.8796,-3.5209 11.658,-8.1262 11.861,-8.2881 a 39.586,39.501 0 0 0 7.4558,-17.028 c -1.2456,3.0902 -15.994,12.74 -20.514,15.46 -4.5225,2.7204 -19.521,12.875 -22.114,15.43 -0.6128,0.60444 -0.99858,1.1384 -1.2303,1.6032 z"
       fill="#9bc848"
       id="path63" /></g><text
     transform="matrix(0.26459,0,0,0.26459,3.3638732,122.07804)"
     x="191.31836"
     fill="#9bc848"
     font-family="'Phetsarath OT'"
     font-size="77.333px"
     text-align="center"
     style="font-style:normal;font-variant:normal;font-weight:normal;font-stretch:normal;font-size:77.3321px;line-height:1;font-family:'Phetsarath OT';-inkscape-font-specification:'Phetsarath OT';text-align:center;white-space:pre;shape-inside:url(#rect287);display:inline"
     xml:space="preserve"
     id="text157"
     y="0"><tspan
       x="0"
       y="0"
       id="tspan294">OpenNeighborhood</tspan></text></svg>
